<?xml version="1.0" encoding="UTF-8" standalone="no"?>
<!DOCTYPE svg PUBLIC "-//W3C//DTD SVG 1.1//EN" "http://www.w3.org/Graphics/SVG/1.1/DTD/svg11.dtd">
<svg width="100%" height="100%" viewBox="0 0 1047 1047" version="1.1" xmlns="http://www.w3.org/2000/svg" xmlns:xlink="http://www.w3.org/1999/xlink" xml:space="preserve" xmlns:serif="http://www.serif.com/" style="fill-rule:evenodd;clip-rule:evenodd;stroke-linejoin:round;stroke-miterlimit:2;">
    <g transform="matrix(1,0,0,1,-389.262,-418.345)">
        <rect x="389.262" y="418.345" width="1046.98" height="1046.98" style="fill:rgb(250,244,240);"/>
    </g>
    <g transform="matrix(0.775252,0,0,0.806936,-132.409,176.455)">
        <path d="M404,814C410.192,812.261 413.276,806.896 417,802C423.81,793.046 430.326,783.68 439.17,776.576C445.178,771.751 451.724,767.348 459,764.695C483.964,755.594 519.846,756.284 534,729L536,729C546.053,750.128 569.209,745.869 588,751.019C606.829,756.179 619.328,768.183 630,784L632,784C644.56,751.394 633.818,708.306 611.855,682C604.617,673.331 596.52,665.812 588,658.424C584.434,655.333 577.723,650.891 576.665,646C575.901,642.466 579.25,638.007 580.753,635C585.348,625.81 590.138,616.8 595.45,608C630.201,550.426 683.132,505.2 743,475.247C764.3,464.59 786.001,455.899 808,446.861C816.081,443.541 825.808,442.638 832.96,437.352C838.586,433.193 842.651,425.452 845,419C825.852,422.952 807.277,430.136 789,436.95C730.978,458.581 676.36,490.519 632.001,534.015C617.915,547.826 605.576,563.969 594.141,580C589.098,587.07 585.226,595.967 579,602C580.85,593.449 586.095,584.985 589.694,577C600.338,553.39 613.781,530.875 629.116,510C681.51,438.679 758.423,382.094 845,360.255C867.708,354.526 891.407,348.195 915,348C901.107,354.583 886.746,361.613 877.464,374.424C869.526,385.383 867.694,399.57 862.935,412C857.579,425.99 849.308,437.78 839.576,449C831.503,458.307 820.305,464.117 812.148,473.09C807.763,477.914 809.586,483.331 816.001,484.656C827.781,487.088 842.43,484.67 854,482.211C884.72,475.68 912.128,462.202 936,441.714C943.864,434.966 951.186,427.848 957.92,419.96C961.227,416.085 963.951,410.687 968.174,407.742C971.635,405.327 976.974,405.131 981,404C979.544,415.524 981.464,426.495 980.961,438C980.552,447.329 978.041,456.375 974.547,465C972.006,471.272 968.371,477.07 965.143,483C963.749,485.563 961.529,488.784 962.647,491.852C963.637,494.567 966.501,494.876 969.001,494.981C975.066,495.235 980.292,493.34 986,491.564C1009.06,484.388 1029.82,468.165 1044.1,449C1053.81,435.979 1060.41,421.372 1065.34,406C1066.88,401.215 1068.23,389.846 1073.14,387.589C1077.05,385.797 1082.76,385.594 1087,385C1096.01,383.737 1104.97,382.794 1114,381.714C1139.14,378.708 1164.64,376.929 1190,378.039C1207.39,378.801 1224.55,382 1242,382C1261.63,382 1291.61,377.756 1291.98,352C1292.32,328.033 1270.07,317.289 1251,309.225C1244.71,306.566 1235.03,304.139 1230.51,298.786C1228,295.812 1227.3,291.553 1225.94,288C1223.97,282.873 1221.47,277.707 1218.65,273C1207.92,255.082 1193.07,241.279 1176,229.435C1148.79,210.559 1117.11,199.582 1085,192.64C1032.72,181.34 978.154,178.99 925,185.286C906.392,187.49 887.285,189.744 869,193.888C854.031,197.281 838.578,203.053 823,201.91C804.727,200.569 786.57,187.085 770,180.076C742.658,168.509 714.649,162.997 685,165.83C677.603,166.537 670.212,166.777 663,168.873C655.031,171.188 632.401,178.354 639.183,190.895C641.133,194.501 645.482,195.888 649,197.424C655.207,200.135 661.427,203.006 666.996,206.884C689.563,222.6 699.306,253.375 682.073,277C676.457,284.698 668.862,290.611 661.985,297.093C650.806,307.632 639.702,318.304 629.514,329.83C595.294,368.543 567.262,412.893 548.204,461C534.54,495.492 523.873,532.126 519.285,569C517.502,583.326 515.077,597.582 514.089,612C513.644,618.503 515.006,628.07 511.972,633.985C508.686,640.393 499.866,644.21 494,647.811C481.979,655.19 469.965,663.215 459,672.095C417.071,706.051 389.53,759.871 404,814Z" style="fill:rgb(232,146,124);fill-rule:nonzero;"/>
    </g>
    <g transform="matrix(0.775252,0,0,0.806936,-131.633,176.455)">
        <path d="M1064,278C1075.83,273.524 1084.36,265.686 1098,268.479C1104,269.709 1108.98,273.711 1115,275C1103.56,257.026 1071.78,255.124 1064,278Z" style="fill:rgb(250,244,240);fill-rule:nonzero;"/>
    </g>
    <g transform="matrix(0.775252,0,0,0.806936,-132.409,176.455)">
        <path d="M1089.19,278.746C1080.72,282.365 1088.15,294.74 1095.89,290.782C1104.13,286.565 1096.91,275.447 1089.19,278.746Z" style="fill:rgb(250,244,240);fill-rule:nonzero;"/>
    </g>
    <g transform="matrix(0.775252,0,0,0.806936,-132.409,176.455)">
        <path d="M982,387C996.759,385.013 1011.36,381.038 1026,378.31C1083.4,367.61 1142.69,358.399 1201,363.086C1218.07,364.458 1236.91,368.657 1254,366.826C1262.46,365.92 1270.9,362.827 1275,355C1254.95,355.166 1236.71,356.132 1217,350.572C1200.83,346.01 1185.25,339.691 1170,332.691C1157.55,326.973 1145.18,319.949 1132,316.036C1101.28,306.915 1069.78,311.467 1041,324.691C1028.22,330.562 1015.01,337.826 1005.17,348.089C995.412,358.273 987.397,374.04 982,387Z" style="fill:rgb(250,244,240);fill-rule:nonzero;"/>
    </g>
</svg>
